# xmcd
#
# Track frame offsets:
#	150
#	17476
#	33379
#	51801
#	67993
#	87114
#	105662
#	124810
#	142726
#	163455
#	179339
#	194281
#	207891
#	222068
#	240280
#	265628
#
# Disc length: 3876 seconds
#
# Revision: 0
# Processed by: cddbd v1.5.2PL0 Copyright (c) Steve Scherf et al.
# Submitted via: audiograbber 1.83.01
#
DISCID=d20f2210
DTITLE=ASK - ask 80 disc 1
DYEAR=1900
DGENRE=
TTITLE0=Big and Rich - Between Raising Hell And Amazing Grace
TTITLE1=Currington, Billy - Good Directions
TTITLE2=Currington, Billy - Tangled Up
TTITLE3=Shelton, Blake - The More I Drink
TTITLE4=Paisley, Brad - On Line
TTITLE5=Paisley, Brad - Ticks
TTITLE6=Paisley, Brad and Underwood, Carrie - Oh Love
TTITLE7=Underwood, Carrie - So Small
TTITLE8=Underwood, Carrie - Wasted
TTITLE9=Walker, Clay - Fall
TTITLE10=Bentley, Dierks - Free And Easy
TTITLE11=Strait, George - It Just Comes Natural
TTITLE12=Ingram, Jack - Measure Of A Man
TTITLE13=Owen, Jake - Startin' With Me
TTITLE14=Nichols, Joe - Another Side Of You
TTITLE15=x - Data Track
EXTD=
EXTT0=
EXTT1=
EXTT2=
EXTT3=
EXTT4=
EXTT5=
EXTT6=
EXTT7=
EXTT8=
EXTT9=
EXTT10=
EXTT11=
EXTT12=
EXTT13=
EXTT14=
EXTT15=
PLAYORDER=
